<svg width="78" height="24" viewBox="0 0 78 24" fill="none" xmlns="http://www.w3.org/2000/svg">
<path fill-rule="evenodd" clip-rule="evenodd" d="M12 6C10.755 6 9.75 4.995 9.75 3.75C9.75 2.505 10.755 1.5 12 1.5C13.245 1.5 14.25 2.505 14.25 3.75C14.25 4.995 13.245 6 12 6ZM22.5 15C22.5 16.665 21.165 18 19.5 18H18C16.335 18 15 16.665 15 15L18 9H16.5C15.675 9 15 8.325 15 7.5H13.5V19.5C14.13 19.5 15 20.175 15 21H16.5C17.13 21 18 21.675 18 22.5H6C6 21.675 6.87 21 7.5 21H9C9 20.175 9.87 19.5 10.5 19.5H10.545L10.5 7.5H9C9 8.325 8.325 9 7.5 9H6L9 15C9 16.665 7.665 18 6 18H4.5C2.835 18 1.5 16.665 1.5 15L4.5 9H3V7.5H7.5C7.5 6.675 8.175 6 9 6H15C15.825 6 16.5 6.675 16.5 7.5H21V9H19.5L22.5 15ZM5.25 10.5L3 15H7.5L5.25 10.5ZM21 15L18.75 10.5L16.5 15H21Z" fill="#4B5563"/>
<path d="M32.5078 20H30.0312L30.0469 18.1719H32.5078C33.1224 18.1719 33.6406 18.0339 34.0625 17.7578C34.4844 17.4766 34.8021 17.0677 35.0156 16.5312C35.2344 15.9948 35.3438 15.3464 35.3438 14.5859V14.0312C35.3438 13.4479 35.2812 12.9349 35.1562 12.4922C35.0365 12.0495 34.8568 11.6771 34.6172 11.375C34.3776 11.0729 34.0833 10.8464 33.7344 10.6953C33.3854 10.5391 32.9844 10.4609 32.5312 10.4609H29.9844V8.625H32.5312C33.2917 8.625 33.987 8.75521 34.6172 9.01562C35.2526 9.27083 35.8021 9.63802 36.2656 10.1172C36.7292 10.5964 37.0859 11.1693 37.3359 11.8359C37.5911 12.4974 37.7188 13.2344 37.7188 14.0469V14.5859C37.7188 15.3932 37.5911 16.1302 37.3359 16.7969C37.0859 17.4635 36.7292 18.0365 36.2656 18.5156C35.8073 18.9896 35.2578 19.3568 34.6172 19.6172C33.9818 19.8724 33.2786 20 32.5078 20ZM31.3594 8.625V20H29.0156V8.625H31.3594ZM43.7188 14.2344V16H39.3047V14.2344H43.7188ZM53.0469 18.1719V20H47.3203V18.1719H53.0469ZM48.0781 8.625V20H45.7344V8.625H48.0781ZM59.1719 10.5703L56.0781 20H53.5859L57.8125 8.625H59.3984L59.1719 10.5703ZM61.7422 20L58.6406 10.5703L58.3906 8.625H59.9922L64.2422 20H61.7422ZM61.6016 15.7656V17.6016H55.5938V15.7656H61.6016ZM67.6484 18.1953L69.9141 8.625H71.1797L71.4688 10.2188L69.0547 20H67.6953L67.6484 18.1953ZM66.4844 8.625L68.3594 18.1953L68.2031 20H66.6875L64.1641 8.625H66.4844ZM73.4609 18.1562L75.3125 8.625H77.6328L75.1172 20H73.6016L73.4609 18.1562ZM71.8906 8.625L74.1719 18.2344L74.1094 20H72.75L70.3203 10.2109L70.6328 8.625H71.8906Z" fill="#4B5563"/>
</svg>
